<mxfile host="app.diagrams.net" agent="Mozilla/5.0 (X11; Linux x86_64) AppleWebKit/537.36 (KHTML, like Gecko) Chrome/129.0.0.0 Safari/537.36" version="24.7.17">
  <diagram name="Page-1" id="zIvVYoIHXLTCiJ3-sLYY">
    <mxGraphModel dx="1434" dy="754" grid="1" gridSize="10" guides="1" tooltips="1" connect="1" arrows="1" fold="1" page="1" pageScale="1" pageWidth="827" pageHeight="1169" math="0" shadow="0">
      <root>
        <mxCell id="0" />
        <mxCell id="1" parent="0" />
        <mxCell id="Y9VhKuXuQL0YcdCnADmT-1" value="LOGIN" style="swimlane;fontStyle=0;childLayout=stackLayout;horizontal=1;startSize=26;fillColor=none;horizontalStack=0;resizeParent=1;resizeParentMax=0;resizeLast=0;collapsible=1;marginBottom=0;html=1;" vertex="1" parent="1">
          <mxGeometry x="50" y="260" width="140" height="104" as="geometry" />
        </mxCell>
        <mxCell id="Y9VhKuXuQL0YcdCnADmT-2" value="ADMIN" style="text;strokeColor=none;fillColor=none;align=left;verticalAlign=top;spacingLeft=4;spacingRight=4;overflow=hidden;rotatable=0;points=[[0,0.5],[1,0.5]];portConstraint=eastwest;whiteSpace=wrap;html=1;" vertex="1" parent="Y9VhKuXuQL0YcdCnADmT-1">
          <mxGeometry y="26" width="140" height="26" as="geometry" />
        </mxCell>
        <mxCell id="Y9VhKuXuQL0YcdCnADmT-3" value="STUDENT" style="text;strokeColor=none;fillColor=none;align=left;verticalAlign=top;spacingLeft=4;spacingRight=4;overflow=hidden;rotatable=0;points=[[0,0.5],[1,0.5]];portConstraint=eastwest;whiteSpace=wrap;html=1;" vertex="1" parent="Y9VhKuXuQL0YcdCnADmT-1">
          <mxGeometry y="52" width="140" height="26" as="geometry" />
        </mxCell>
        <mxCell id="Y9VhKuXuQL0YcdCnADmT-4" value="FORGET PASS" style="text;strokeColor=none;fillColor=none;align=left;verticalAlign=top;spacingLeft=4;spacingRight=4;overflow=hidden;rotatable=0;points=[[0,0.5],[1,0.5]];portConstraint=eastwest;whiteSpace=wrap;html=1;" vertex="1" parent="Y9VhKuXuQL0YcdCnADmT-1">
          <mxGeometry y="78" width="140" height="26" as="geometry" />
        </mxCell>
        <mxCell id="Y9VhKuXuQL0YcdCnADmT-9" value="" style="edgeStyle=orthogonalEdgeStyle;rounded=0;orthogonalLoop=1;jettySize=auto;html=1;" edge="1" parent="1" source="Y9VhKuXuQL0YcdCnADmT-7" target="Y9VhKuXuQL0YcdCnADmT-8">
          <mxGeometry relative="1" as="geometry" />
        </mxCell>
        <mxCell id="Y9VhKuXuQL0YcdCnADmT-12" value="" style="edgeStyle=orthogonalEdgeStyle;rounded=0;orthogonalLoop=1;jettySize=auto;html=1;" edge="1" parent="1" source="Y9VhKuXuQL0YcdCnADmT-7" target="Y9VhKuXuQL0YcdCnADmT-11">
          <mxGeometry relative="1" as="geometry" />
        </mxCell>
        <mxCell id="Y9VhKuXuQL0YcdCnADmT-16" value="" style="edgeStyle=orthogonalEdgeStyle;rounded=0;orthogonalLoop=1;jettySize=auto;html=1;" edge="1" parent="1" source="Y9VhKuXuQL0YcdCnADmT-7" target="Y9VhKuXuQL0YcdCnADmT-15">
          <mxGeometry relative="1" as="geometry" />
        </mxCell>
        <mxCell id="Y9VhKuXuQL0YcdCnADmT-7" value="ADMIN&amp;nbsp;&lt;div&gt;DASHBOARD&lt;/div&gt;" style="shape=hexagon;perimeter=hexagonPerimeter2;whiteSpace=wrap;html=1;fixedSize=1;" vertex="1" parent="1">
          <mxGeometry x="490" y="50" width="120" height="80" as="geometry" />
        </mxCell>
        <mxCell id="Y9VhKuXuQL0YcdCnADmT-8" value="LAST LOGIN" style="whiteSpace=wrap;html=1;" vertex="1" parent="1">
          <mxGeometry x="490" y="220" width="120" height="60" as="geometry" />
        </mxCell>
        <mxCell id="Y9VhKuXuQL0YcdCnADmT-11" value="NO. OF CATEGORIES" style="whiteSpace=wrap;html=1;" vertex="1" parent="1">
          <mxGeometry x="690" y="60" width="120" height="60" as="geometry" />
        </mxCell>
        <mxCell id="Y9VhKuXuQL0YcdCnADmT-15" value="BOOKS AVAILABLE&lt;div&gt;QUANTITY OF BOOK&lt;/div&gt;&lt;div&gt;ISSUED BOOK QUANITU&lt;/div&gt;" style="whiteSpace=wrap;html=1;" vertex="1" parent="1">
          <mxGeometry x="220" y="60" width="190" height="60" as="geometry" />
        </mxCell>
        <mxCell id="Y9VhKuXuQL0YcdCnADmT-21" style="edgeStyle=orthogonalEdgeStyle;rounded=0;orthogonalLoop=1;jettySize=auto;html=1;entryX=0;entryY=0.75;entryDx=0;entryDy=0;" edge="1" parent="1" source="Y9VhKuXuQL0YcdCnADmT-17" target="Y9VhKuXuQL0YcdCnADmT-7">
          <mxGeometry relative="1" as="geometry">
            <Array as="points">
              <mxPoint x="390" y="230" />
              <mxPoint x="430" y="230" />
              <mxPoint x="430" y="107" />
            </Array>
          </mxGeometry>
        </mxCell>
        <mxCell id="Y9VhKuXuQL0YcdCnADmT-17" value="ADMIN DASHBOARD" style="swimlane;fontStyle=0;childLayout=stackLayout;horizontal=1;startSize=30;horizontalStack=0;resizeParent=1;resizeParentMax=0;resizeLast=0;collapsible=1;marginBottom=0;whiteSpace=wrap;html=1;" vertex="1" parent="1">
          <mxGeometry x="340" y="330" width="140" height="150" as="geometry" />
        </mxCell>
        <mxCell id="Y9VhKuXuQL0YcdCnADmT-19" value="BOOK n QUANTITY" style="text;strokeColor=none;fillColor=none;align=left;verticalAlign=middle;spacingLeft=4;spacingRight=4;overflow=hidden;points=[[0,0.5],[1,0.5]];portConstraint=eastwest;rotatable=0;whiteSpace=wrap;html=1;" vertex="1" parent="Y9VhKuXuQL0YcdCnADmT-17">
          <mxGeometry y="30" width="140" height="30" as="geometry" />
        </mxCell>
        <mxCell id="Y9VhKuXuQL0YcdCnADmT-18" value="CATEGORIES" style="text;strokeColor=none;fillColor=none;align=left;verticalAlign=middle;spacingLeft=4;spacingRight=4;overflow=hidden;points=[[0,0.5],[1,0.5]];portConstraint=eastwest;rotatable=0;whiteSpace=wrap;html=1;" vertex="1" parent="Y9VhKuXuQL0YcdCnADmT-17">
          <mxGeometry y="60" width="140" height="30" as="geometry" />
        </mxCell>
        <mxCell id="Y9VhKuXuQL0YcdCnADmT-22" value="ISSUE BOOK" style="text;strokeColor=none;fillColor=none;align=left;verticalAlign=middle;spacingLeft=4;spacingRight=4;overflow=hidden;points=[[0,0.5],[1,0.5]];portConstraint=eastwest;rotatable=0;whiteSpace=wrap;html=1;" vertex="1" parent="Y9VhKuXuQL0YcdCnADmT-17">
          <mxGeometry y="90" width="140" height="30" as="geometry" />
        </mxCell>
        <mxCell id="Y9VhKuXuQL0YcdCnADmT-20" value="LAST LOGIN DATE N TIME" style="text;strokeColor=none;fillColor=none;align=left;verticalAlign=middle;spacingLeft=4;spacingRight=4;overflow=hidden;points=[[0,0.5],[1,0.5]];portConstraint=eastwest;rotatable=0;whiteSpace=wrap;html=1;" vertex="1" parent="Y9VhKuXuQL0YcdCnADmT-17">
          <mxGeometry y="120" width="140" height="30" as="geometry" />
        </mxCell>
        <mxCell id="Y9VhKuXuQL0YcdCnADmT-26" value="" style="swimlane;startSize=0;" vertex="1" parent="1">
          <mxGeometry x="550" y="330" width="200" height="200" as="geometry" />
        </mxCell>
        <mxCell id="Y9VhKuXuQL0YcdCnADmT-29" value="" style="edgeStyle=orthogonalEdgeStyle;rounded=0;orthogonalLoop=1;jettySize=auto;html=1;" edge="1" parent="Y9VhKuXuQL0YcdCnADmT-26" source="Y9VhKuXuQL0YcdCnADmT-27" target="Y9VhKuXuQL0YcdCnADmT-28">
          <mxGeometry relative="1" as="geometry" />
        </mxCell>
        <mxCell id="Y9VhKuXuQL0YcdCnADmT-27" value="STUDENT DETAIL" style="text;html=1;align=center;verticalAlign=middle;resizable=0;points=[];autosize=1;strokeColor=none;fillColor=none;" vertex="1" parent="Y9VhKuXuQL0YcdCnADmT-26">
          <mxGeometry x="40" y="8" width="120" height="30" as="geometry" />
        </mxCell>
        <mxCell id="Y9VhKuXuQL0YcdCnADmT-28" value="ENROLLMENT ID&lt;div&gt;&lt;br&gt;&lt;div&gt;NAME&lt;/div&gt;&lt;div&gt;&lt;br&gt;&lt;/div&gt;&lt;/div&gt;&lt;div&gt;BOOK NAME&lt;/div&gt;&lt;div&gt;&lt;br&gt;&lt;/div&gt;&lt;div&gt;RETURN DATE&lt;/div&gt;&lt;div&gt;&lt;br&gt;&lt;/div&gt;" style="whiteSpace=wrap;html=1;" vertex="1" parent="Y9VhKuXuQL0YcdCnADmT-26">
          <mxGeometry x="40" y="50" width="120" height="130" as="geometry" />
        </mxCell>
        <mxCell id="Y9VhKuXuQL0YcdCnADmT-32" style="edgeStyle=orthogonalEdgeStyle;rounded=0;orthogonalLoop=1;jettySize=auto;html=1;entryX=0;entryY=0.445;entryDx=0;entryDy=0;entryPerimeter=0;" edge="1" parent="1" source="Y9VhKuXuQL0YcdCnADmT-22" target="Y9VhKuXuQL0YcdCnADmT-26">
          <mxGeometry relative="1" as="geometry" />
        </mxCell>
        <mxCell id="Y9VhKuXuQL0YcdCnADmT-33" value="FILES" style="swimlane;whiteSpace=wrap;html=1;" vertex="1" parent="1">
          <mxGeometry x="40" y="570" width="210" height="210" as="geometry" />
        </mxCell>
        <mxCell id="Y9VhKuXuQL0YcdCnADmT-34" value="BOOK DATA" style="whiteSpace=wrap;html=1;" vertex="1" parent="Y9VhKuXuQL0YcdCnADmT-33">
          <mxGeometry x="5" y="30" width="200" height="30" as="geometry" />
        </mxCell>
        <mxCell id="Y9VhKuXuQL0YcdCnADmT-35" value="ISSUE DATA" style="whiteSpace=wrap;html=1;" vertex="1" parent="Y9VhKuXuQL0YcdCnADmT-33">
          <mxGeometry x="5" y="60" width="200" height="30" as="geometry" />
        </mxCell>
        <mxCell id="Y9VhKuXuQL0YcdCnADmT-36" value="STUDENT DATA" style="whiteSpace=wrap;html=1;" vertex="1" parent="Y9VhKuXuQL0YcdCnADmT-33">
          <mxGeometry x="5" y="90" width="200" height="30" as="geometry" />
        </mxCell>
        <mxCell id="Y9VhKuXuQL0YcdCnADmT-37" value="LAST LOGIN DATA" style="whiteSpace=wrap;html=1;" vertex="1" parent="Y9VhKuXuQL0YcdCnADmT-33">
          <mxGeometry x="5" y="120" width="200" height="30" as="geometry" />
        </mxCell>
        <mxCell id="Y9VhKuXuQL0YcdCnADmT-38" value="AUTHORIZATION&amp;nbsp;" style="whiteSpace=wrap;html=1;" vertex="1" parent="Y9VhKuXuQL0YcdCnADmT-33">
          <mxGeometry x="5" y="150" width="200" height="30" as="geometry" />
        </mxCell>
      </root>
    </mxGraphModel>
  </diagram>
</mxfile>
